<svg width="32" height="32" viewBox="0 0 16 16" fill="none" xmlns="http://www.w3.org/2000/svg">
  <path d="M8 0.198C3.58 0.198 0 3.778 0 8.198C0 11.586 2.292 14.418 5.47 15.468C5.872 15.538 6.02 15.29 6.02 15.076C6.02 14.886 6.012 14.388 6.007 13.739C3.782 14.202 3.309 12.72 3.309 12.72C2.955 11.826 2.422 11.588 2.422 11.588C1.684 11.082 2.48 11.093 2.48 11.093C3.293 11.151 3.723 11.938 3.723 11.938C4.45 13.22 5.635 12.85 6.113 12.648C6.183 12.122 6.391 11.762 6.623 11.548C4.827 11.332 2.93 10.64 2.93 7.585C2.93 6.719 3.248 5.998 3.781 5.421C3.695 5.204 3.415 4.381 3.867 3.298C3.867 3.298 4.536 3.064 6.002 4.02C6.64 3.843 7.32 3.755 8 3.752C8.68 3.755 9.36 3.843 9.998 4.02C11.464 3.064 12.133 3.298 12.133 3.298C12.585 4.381 12.305 5.204 12.219 5.421C12.752 5.998 13.07 6.719 13.07 7.585C13.07 10.652 11.17 11.33 9.368 11.543C9.662 11.796 9.926 12.303 9.926 13.054C9.926 14.104 9.915 14.856 9.915 15.076C9.915 15.29 10.06 15.542 10.47 15.468C13.708 14.408 16 11.576 16 8.198C16 3.778 12.42 0.198 8 0.198Z" fill="white"/>
</svg>
